<svg xmlns="http://www.w3.org/2000/svg" width="498" height="482.999" viewBox="0 0 498 482.999">
  <path id="Subtraction_7" data-name="Subtraction 7" d="M249,497a251.78,251.78,0,0,1-139.218-41.5A249.409,249.409,0,0,1,72.93,425.821a245.734,245.734,0,0,1-30.4-35.965,241.11,241.11,0,0,1-22.958-41.28,238.442,238.442,0,0,1,0-189.191A241.32,241.32,0,0,1,42.525,118.1a245.983,245.983,0,0,1,30.4-35.965,249.894,249.894,0,0,1,79.148-52.082A253.132,253.132,0,0,1,179,20.688L155.472,143.257A146.864,146.864,0,0,0,105,253.98c0,80.4,64.6,145.811,144,145.811S393,334.38,393,253.98a146.549,146.549,0,0,0-50.088-110.45L319.351,20.783a251.314,251.314,0,0,1,68.866,31.681A249.594,249.594,0,0,1,425.07,82.139a245.982,245.982,0,0,1,30.4,35.965,241.488,241.488,0,0,1,22.958,41.28,238.442,238.442,0,0,1,0,189.191,241.285,241.285,0,0,1-22.958,41.28,245.732,245.732,0,0,1-30.4,35.965A249.893,249.893,0,0,1,345.922,477.9,252.722,252.722,0,0,1,249,497Zm96-200.492H153l21.673-111.776.329.063L207.792,14h82.435l.053.268.259.044.067.011,20.779,108.254-.06-.03-.059-.03L322.256,179.2l2.241,11.669.022,0L345,296.5ZM246.059,111.2l-.024.123a35.709,35.709,0,0,0-23.452,11.57,36.648,36.648,0,0,0,10.122,57.274L219,250.943h60l-13.7-70.772a36.221,36.221,0,0,0,14.24-13.191,36.821,36.821,0,0,0-4.115-44.083,35.725,35.725,0,0,0-23.455-11.57l-.024-.123Z" transform="translate(0 -14)" fill="#fff"/>
</svg>